<svg fill="#73617a" id="visual" viewBox="0 0 960 540" width="960" height="540" xmlns="http://www.w3.org/2000/svg" xmlns:xlink="http://www.w3.org/1999/xlink" version="1.1"><path d="M0 264L16 268.2C32 272.3 64 280.7 96 285C128 289.3 160 289.7 192 288C224 286.3 256 282.7 288 279C320 275.3 352 271.7 384 265.8C416 260 448 252 480 254C512 256 544 268 576 268.8C608 269.7 640 259.3 672 254.5C704 249.7 736 250.3 768 254.8C800 259.3 832 267.7 864 269.3C896 271 928 266 944 263.5L960 261L960 541L944 541C928 541 896 541 864 541C832 541 800 541 768 541C736 541 704 541 672 541C640 541 608 541 576 541C544 541 512 541 480 541C448 541 416 541 384 541C352 541 320 541 288 541C256 541 224 541 192 541C160 541 128 541 96 541C64 541 32 541 16 541L0 541Z" stroke-linecap="round" stroke-linejoin="miter"></path></svg>