<svg viewBox="0 0 200 200" xmlns="http://www.w3.org/2000/svg">
  <mask id="mask0" mask-type="alpha">
    <path d="M62.1,-57.5C77.1,-47,83.7,-23.5,83.6,-0.1C83.5,23.2,76.6,46.4,61.5,58.2C46.4,69.9,23.2,70.2,3.2,66.9C-16.7,63.7,-33.5,56.9,-47.5,45.2C-61.6,33.5,-72.9,16.7,-75.6,-2.7C-78.3,-22.2,-72.4,-44.4,-58.4,-54.9C-44.4,-65.4,-22.2,-64.3,0.7,-65C23.5,-65.6,47,-68.1,62.1,-57.5Z" transform="translate(100 100)" />
  </mask>
  <g mask="url(#mask0)">
    <path d="M62.1,-57.5C77.1,-47,83.7,-23.5,83.6,-0.1C83.5,23.2,76.6,46.4,61.5,58.2C46.4,69.9,23.2,70.2,3.2,66.9C-16.7,63.7,-33.5,56.9,-47.5,45.2C-61.6,33.5,-72.9,16.7,-75.6,-2.7C-78.3,-22.2,-72.4,-44.4,-58.4,-54.9C-44.4,-65.4,-22.2,-64.3,0.7,-65C23.5,-65.6,47,-68.1,62.1,-57.5Z" transform="translate(100 100)" />
    <image class=" w-28" x="50" y="10" xlink:href="../assets/hero-i.png"/>
  </g>
</svg>